<?xml version="1.0" encoding="utf-8"?>
<!-- Generator: Adobe Illustrator 23.1.0, SVG Export Plug-In . SVG Version: 6.00 Build 0)  -->
<svg version="1.1" xmlns="http://www.w3.org/2000/svg" xmlns:xlink="http://www.w3.org/1999/xlink" x="0px" y="0px"
	 viewBox="0 0 512 512" style="enable-background:new 0 0 512 512;" xml:space="preserve">
<style type="text/css">
	.st0{fill:#3C6B83;}
	.st1{fill:#265C71;}
	.st2{fill:#888686;}
	.st3{fill:#706E6F;}
	.st4{fill:#1C1713;}
	.st5{fill:#777777;}
	.st6{fill:#7B5023;}
	.st7{fill:#FFFFFF;}
</style>
<g id="Ogrlica">
	<g>
		<path class="st0" d="M327.84003,407.17996c-0.78003,1.56006-2.83002,3.71002-7.41003,6.93005
			c-4.58997,3.21997-22.64001,8.96997-39.71002,12.77997c-13.54999,3.02002-38.02997,4.37-54.52997,4.85004
			c-4.35999-0.88-8.53998-1.88-12.47998-2.97003c-0.79004-0.21002-1.56-0.42999-2.33002-0.65997
			c-5.16003-1.5-9.82001-3.11005-13.81-4.70001c-0.38-0.15002-0.77002-0.29999-1.14001-0.46002
			c-0.46002-0.17999-0.90997-0.37-1.34998-0.56c-0.28003-0.10999-0.54999-0.22998-0.81-0.34998
			c-0.35004-0.15002-0.69-0.29999-1.02002-0.45001c-0.34003-0.15002-0.65997-0.28998-0.97998-0.44
			c-1.52002-0.70001-7.80005-4.09003-8.92004-4.95001c-7.12-5.45996-11.07996-10.12-14.44-16.47998
			c-0.63995-1.70001-1.76996-5.13-1.67999-11.85999c0-0.39001,0.01001-0.79004,0.02002-1.20001
			c0-0.07001,0.01001-0.14001,0.01001-0.21002c0.01001-0.25,0.02002-0.5,0.02997-0.75c0.01001-0.25,0.02002-0.51001,0.04004-0.77002
			c0.02997-0.51996,0.06-1.04999,0.10999-1.60999c0-0.04999,0.01001-0.10999,0.01001-0.16998
			c0.03998-0.5,0.08997-1.01001,0.14001-1.53998c0.02997-0.29004,0.06-0.59003,0.08997-0.89001
			c0.06-0.52002,0.12-1.04999,0.19-1.59003c0.01001-0.08997,0.03003-0.19,0.03998-0.27997
			c0.08002-0.64001,0.17004-1.29999,0.27002-1.97003c0.02002-0.13995,0.03998-0.26996,0.06-0.40997
			c0.91003,2.20996,2.14001,4.56,3.79999,6.89996c6.63,9.37006,25.56,16.98004,37.66003,22.05005
			c12.08997,5.07996,41.35999,8.97998,60.77997,8c19.41003-0.97003,42.73004-3.51001,50.14001-6.73004
			C328.03998,403.47,328.62,405.61996,327.84003,407.17996z"/>
	</g>
	<path class="st1" d="M350.5,406.72c-3.52002,5.69-16.09003,15.14001-33.29999,22.17999
		c-11.60004,3.71002-21.75,6.42999-44.87,6.42999c-6.88,0-26.36005-0.71997-32.78003-1.46997
		c-0.98999-0.11005-1.96997-0.24005-2.95001-0.37c-1.01996-0.14001-2.02997-0.29004-3.03998-0.44
		c-0.40002-0.06-0.78998-0.12006-1.19-0.19c-0.06-0.01001-0.12-0.02002-0.19-0.03003
		c-0.91998-0.15002-1.82001-0.29999-2.72998-0.46997c-1.09003-0.19-2.17999-0.40002-3.26001-0.62
		c16.5-0.48004,40.97998-1.83002,54.52997-4.85004c17.07001-3.81,35.12006-9.56,39.71002-12.77997
		c4.58002-3.22003,6.63-5.37,7.41003-6.93005c0.77997-1.56,0.19995-3.70996-7.22003-0.48999
		c-7.40997,3.22003-30.72998,5.76001-50.14001,6.73004c-19.41998,0.97998-48.69-2.92004-60.77997-8
		c-12.10004-5.07001-31.03003-12.67999-37.66003-22.05005c-1.65997-2.33997-2.88995-4.69-3.79999-6.89996
		c0.09003-0.54999,0.16998-1.10999,0.27002-1.67999c0.16998-1.03003,0.76001-2.33002,1.64001-3.73004
		c0.44995-0.71997,1.52997-0.56995,1.78998,0.23004c1.06,3.31,3.09998,7.82001,6.83002,10.95996
		c6.57996,5.56,16.67999,9.37,28.09998,13.76001c11.41003,4.39001,19.16998,6,30.28998,8.04999
		c11.12006,2.05005,31.02002,2.49005,37.46002,2.78003s25.03003-1.60999,36.72998-5.12
		c11.71002-3.52002,21.52002-10.39001,27.66003-15.66003c3.96997-3.39996,8.60999-9.58997,11.39996-13.54999
		c0.54004-0.75,1.69-0.52997,1.93005,0.35999c0.75,2.74005,1.02997,5.68005,1.19995,7.42004
		C354.41998,389.44998,353.52002,401.85001,350.5,406.72z"/>
</g>
<g id="Senka">
	<g id="_x31_">
		<path class="st2" d="M173.5,286.88998c-5.27002,10.14001-7.60999,17.75-17.37,23.60999
			c-0.03998,0.02002-0.08002,0.05005-0.12,0.07001c-0.82001-0.52997-1.72003-1.16998-2.71002-1.92999
			c-5.07001-3.90997-10.14001-14.41998-10.23999-14.63c0,0,0,0,0-0.01001c-7.75-13.01996-6.26001-37.59998-6.07001-42.97998
			c0.47003-13.69,2.16998-19.53998,2.85004-23.52002c0.12-0.70996-0.84003-1-1.15002-0.35999
			c-5.72998,11.85999-6.87,35.76001-7.06,48.38c-0.02002,1.89001-2.46002,2.64001-3.54999,1.09998
			c-1.39001-1.97998-2.85004-4.07996-3.65002-5.38995c-4.81-7.86005-11.63-14.33002-20.77997-23.81
			C99.5,243.12997,94.25,237.88998,89.79999,232.31998C81.27002,221.63998,78.32001,212.84,76.75,203.92996
			c-0.38-2.17999-0.75-4.23999-1.20001-6.26996C71.06,174.24997,83.21002,167.67001,92.62,159.80997
			c1.06-0.88995,9.54999-8.03998,20.38-17.32996c-2.79999,10.13-6.40002,24.73999-6.03998,31.63
			c0.58997,11.12-0.19,16.19,1.94995,16.57996c2.15002,0.39001,9.18005-3.51001,19.32001-35.51001
			c10.15002-32,32.59003-54.04999,33.76001-54.43994c1.16998-0.39001,5.46002-2.34003,2.53003,3.89996
			c-2.92004,6.25-18.53003,31.22003-16,59.32001C151.06,192.05997,163.54999,209.03,166.87,226.79001
			C170.17999,244.55002,178.77002,276.74002,173.5,286.88998z"/>
		<path class="st2" d="M433.97998,206.66c-7.17999-11.66003-17.01001-27.63-25.98999-39.54004l-2.15997-2.87
			c-6.82001-9.04999-25.02002-31.47998-28.48004-34.88c-0.41998-0.21997-1.64996-0.51996-3.19-0.53998
			c-2.87-0.02997-5.38995-2.70001-7.31-4.84998c-13.69995-15.31-26.31-27.63-30.65997-29.98004
			c-1.83002-0.97998-3.97998-2.28998-4.92999-4.13995c-3.13-3.07001-8.25-8.58002-24.08002-9
			c-0.28998-0.01001-9.39996,0.26996-15.92999,0.46997c-0.09998,0-0.20001,0.01001-0.31,0.01001
			c-0.09003,0-0.17999,0.01001-0.27002,0.01001c-4.07996,0.25-2.21997,3.34998-0.57001,4.82001
			c1.68005,1.5,2.52002,3.76996,2.30005,3.79999c-0.22003,0.03998-0.62,0.21997-7.39001-5.73999
			c-1.91003-1.67999-3.97998-2.97003-5.98999-3.95001c-0.42004-0.13-0.98999-0.28998-1.71002-0.47003h-0.01001
			c-8.72998,0.69-22.44,3.41003-36.03998,12.69c-22.54004,15.36005-29.85999,10.83002-30.44,9.95001
			c-0.59003-0.88,10.08997-4.97998,14.19-9.65997c3.70996-4.23004,6.82001-9.47003,10.52002-12.35004
			c-3.5-0.44-9.99005-1.28998-16-1.52997c-23.73004-0.98004-27.82001,6.33002-29.04004,6.98999
			c-1.45996,0.77002-3.10999,1.17999-4.77002,1.17999c-0.26996,0-0.53998-0.01001-0.81-0.02997
			c0.04004,0.20996,0.08002,0.40997,0.10004,0.62c0.97998,8.57996-5.07001,17.35999-15.79999,35.50995
			c-2.51001,4.24005-3.81,9.43005-4.33002,14.88c0.27002-0.63995,0.54999-1.28998,0.85999-1.94995
			c6.13-13.09003,21.14001-33.47003,32.79004-38.44c0.53998-0.23004,1.06,0.38995,0.72998,0.88
			c-4.12,6.21997-19.32001,29.87994-19.32001,40.62994c0,12.44,2.04999,26.05005,16.67999,39.80005
			c14.64001,13.76001,16.83002,13.90997,27.08002,7.46997l9.32001-5.85999c0.37-0.23999,0.84998-0.09003,1.03998,0.27997
			c0.96002-3.28998,2.21002-7.90997,2.65997-11.25c0.78003-5.75995-2.72998-8.09998-7.81-13.26996
			c-5.06995-5.17004-4.77997-10.44-4.38995-15.12c0.38995-4.67999,1.57001-1.47003,6.06,3.70996
			c4.48999,5.17004,14.82001,8,19.01996,5.26001c4.19-2.72998,2.53003-0.87,2.24005,4.35004
			c-0.19,3.46997,0.76996,4.83997,1.94995,5.66998c-0.08997-1.02002-0.15997-2.22998-0.28998-3.41003
			c-0.25-2.29999-0.28003-4.71997-0.22998-6.70996c0.03998-1.79999-1.71002-3.04999-3.42999-2.51001
			c-0.18005,0.06-0.36005,0.10999-0.54004,0.15002c-5.21997,1.20996-9.08002,0.42999-14.47998-2.34003
			c-2.71002-1.39001-6.04999-5.83002-8.03003-8.72003c-0.91998-1.34998-2.82001-1.56-4.01996-0.44995
			c-3.56,3.28998-9.72003,8.71997-6.98004,4.27997c-0.09998-0.09998-0.15997-0.23999-0.14996-0.39996
			c0.02997-1.15002,0.20001-2.95001,0.81-4.85004c1.02997-3.17999,4.60999-8.08002,4.60999-8.08002
			c-3.07001-1.23999-1.96997-2.41998,0-3.81c1.38-0.96997,5.64001-2.85999,9.08002-3.89996
			c-0.98004-0.46002,1.01001-1.44,4.01996-2.02002c3.80005-0.72998,7.90002-0.21997,12.44,1.39001
			c3.12,1.10999,8.98004,7.44,12.33002,11.28998c1.34003,1.54004,3.79999,1.29999,4.81-0.47998
			c0.66998-1.19,1.47998-2.69,2.5-4.59003c2.41003-4.47998,3.15002-6.50995,2.72003-9.81
			c-2.30005,0.33002-5.38-0.39996-9.41003-2.40997c-3.76996-1.89001-4-3.60999-3.89996-5.08002
			c0.08997-1.45996,1.75-4.67999,11.79999-5.45996c10.04999-0.78003,11.41998,5.94995,11.81,18.44
			c0.39001,12.48999,4.19,20.77997,3.89996,21.06995c-0.28998,0.30005-2.53998,1.17004-6.14996-0.67999
			c-2.91998-1.5-6.09003-4.45996-8.64001-7.38995c-4.04999,5.01996-8.29999,11.98999-10.21002,16.77997
			c-0.12994,0.31-0.38995,1.01001-0.59998,1.59998c-0.22998,0.62006-0.41998,1.25-0.57001,1.89001
			c-0.81,3.45001-1.39996,5.67999-1.83002,7c0.16003,0.08002,0.32001,0.16998,0.47003,0.26001
			c1.73999,1.01001,9.58002,2.09998,20.70001,0.34998c11.12-1.75995,8.19,3.51001,6.83997,6.63
			c-1.34998,3.12-13.46997,14.25-20.10999,20.88c-6.63,6.63-15.02002,28.29004-17.95001,38.04999
			c-2.19,7.31006-9.29999,21.27002-15.44,29.64001c0,0,0,0,0,0.01001c0.72003,2.60999,1.32001,3.96002,2.81,3.96002
			c2.34003,0,7.46002-12.29004,9.80005-19.76001c2.33997-7.46002,9.94995-24.14001,13.01996-27.51001
			c3.08002-3.35999,12.15002-7.90002,15.66003-10.09998c2.56-1.59003,7.50995-4.27002,11.13995-6.74005
			c0.58002-0.38995,1.25,0.34003,0.81,0.88c-2.52997,3.13-7.25,8.29004-15.42999,15.20001
			c-0.01001,0.02002-0.02997,0.03003-0.04999,0.04004c-0.47998,0.32996-8.27997,5.83997-16.08002,28.52997
			c-8.04999,23.41003-13.16998,28.23999-14.04999,32.63c-0.87,4.39001-4.96997,9.21997,3.96002,14.92999
			c8.91998,5.70001,12.58002,7.60999,24.72998,6.72998c1.97998-0.13995,4.09003-0.51996,6.29999-1.10999
			c7.76001-6.53998,14.92999-15.48999,20.33002-21.27997c8.04999-8.64001,14.64001-14.34003,20.22003-17.27002
			c5.57996-2.92999,11.25-8.92999,17.25-16.39001c4.88995-6.07996,4.72998-14.96997,4.65997-22.72998
			c-3.02002-1.25-5.75-2.72003-7.01001-4.34003c-3.64996-4.69-4.96997-8.33997,0.59003-8.77997s9.37-0.15002,11.70996-3.66003
			c2.34003-3.50995,2.34003-6.72998,0-8.77997c-2.33997-2.04999-6.29999-4.25-9.81-1.76001s-5.56,6.28998-7.89996,7.76001
			c-2.34003,1.46002-3.22003,2.33997-4.54004,0.72998c-1.31-1.60999,2.34003-11.26996,5.12-13.76001
			c2.79004-2.48999,6.30005-6,18.74005-6s20.91998-0.57996,25.01996,2.20001c4.10004,2.78003,7.17004,7.60999,8.04999,10.83002
			c0.88,3.21997,1.32001,5.27002,0,6.28998c-1.31995,1.02002-4.09998-3.95001-6.43994-6.44
			c-2.34003-2.48999-3.37006-2.63-5.27002-2.19c-1.90002,0.42999-3.66003,4.82001-1.75,8.48004c1.89996,3.65997,3.51001,4.69,6,6.44
			c2.27997,1.62,3.33002,2.97998,2.34998,5.12c0.60999,0.65997,1.12,1.37,1.29999,2.04999
			c0.59003,2.20001-0.42999,4.69-1.45996,7.90997c-1.02002,3.22003-4.10004,4.23999-6.15002,6.87
			c-2.03998,2.64001-1.16998,4.39001-0.87,11.86005c0.28998,7.45996,3.95001,13.01996,6.58002,15.94995
			c2.64001,2.93005,4.53998,11.41003,4.97998,17.85004c0.29999,4.44-1.96997,9.71997-4.76001,14.77997
			c0.19,0.06,0.40002,0.11005,0.66003,0.15002c1.60999,0.28998,4.97998-2.48999,6.44-5.84998
			c1.45996-3.37006,6.28998-23.03003,4.82996-29.59003c-1.45996-6.56-4.67999-15.34003-2.63995-23.39001
			c2.04999-8.04999,5.57001-25.16998,3.81-34.67999c-1.76001-9.52002-3.51001-20.20001-23.27002-29.27002
			c-19.76001-9.06995-27.65997-19.31995-28.09998-25.45996c-0.23004-3.23999,0.56-7.54004,1.34998-10.88
			c0.16998-0.70001,1.19-0.58002,1.19,0.13c0,1.20001,0.03998,2.51996,0.15997,3.84998
			c2.68005-5.26996,4.96002-7.53998,7.06-8.08002c2.24005-0.58997,4.54004,0.34003,7.88,2.85004
			c3.34003,2.52002,3.13,3.48999,3.28003,4.65997c0.15997,1.17004,0.89001,1.66003,3.83997,0.67999
			c2.95001-0.96997,9.19,0.49005,10.46002,1.57001c1.27002,1.07001,3.60999,3.07001,5.08002,6.02002
			c1.45996,2.95001-0.29999,4.32001,0,4.90002c0.28998,0.58997,6.91998,1.46997,14.33997,7.81
			c7.41003,6.33997,17.17004,20.67999,21.27002,33.16998c4.09003,12.48999,5.26001,21.46002,4.09003,37.07001
			c-1.17004,15.60999-1.85004,17.56-1.26001,24.88c0.58002,7.32001,0,8.96997-0.59003,9.26996
			c-0.58997,0.29004-2.72998-2.25-3.21997-3.60999c-0.48999-1.37-3.60999-6.25-5.85004,2.23999
			c-2.25,8.48999-3.32001,19.81-2.44,30.25c0.88,10.42999,1.17004,27.31,0.78003,33.85004
			c-0.39001,6.53998-1.85999,11.89996-4.48999,14.53998c-2.63,2.63-6.44,4.09003-8.67999,3.02002
			c-1.54004-0.73004-8.08002-6.89001-12.36005-12.44c0.43005,0.95001,0.92004,1.94,1.48004,3.01001
			c2.95001,5.64996,6.28998,10.94,10.04999,13.13995c1.82001,1.06,6.22998,1.33002,8.96002,1.33002
			c3.23999,0,5.13995-0.83997,5.50995-1.21997c3.76001-4.56,9.60004-17.77002,10.04004-24.04004
			c0.20001-2.88995,0.02997-6.75-0.14001-10.46997c-0.27002-6.15002-0.41998-10.66003,0.34998-14.17999V291.47
			c-0.06-0.39001-0.12-0.77002-0.17999-1.14001c-2.78998-16.94-1.41998-22.65002-1.35999-22.88
			c0.06-0.23999,0.27002-0.39001,0.53003-0.38c0.23999,0.03003,0.44,0.23004,0.44995,0.47003
			c0.33002,6.14996,1.20001,9.90997,2.12,12.20996c0.93005,2.30005,1.92004,3.13,2.49005,3.44
			c0.38-0.59998,0.76996-1.22998,1.19-1.89996c2.22998-3.54999,5-7.97003,7.95996-13.34003
			c4.14001-7.51001,6.10004-18.13,6.23004-22.14001c0.09998-3.01996,1.56-5.88,3.92999-7.71997
			c0.79999-0.88,3.60999-4.89001,5.48999-12.02002C439.22998,221.19998,440.33002,216.99002,433.97998,206.66z M325.70001,170.79001
			c-2.64001,0.28998-1.17999,0-5.41998,1.45996c-4.24005,1.47003-8.16003,5.83002-9.80005,11.42004
			c-0.76996,2.62-0.88,6.72998-3.81,10.23999s-3.51001,1.16998-4.09998,0c-0.58002-1.16998,0.14996-4.23999-2.19-7.46002
			c-2.34003-3.21997-2.64001-5.27002-2.38-7.32001c0.25-2.04999,2.22998-6.72998,8.52002-8.63
			c6.29999-1.90997,9.21997-1.46997,9.95996-2.77997c0.73004-1.32001-2.19995-2.04999-5.85999-1.47003
			c-3.65997,0.59003-7.60999,2.78003-10.39001,2.92999c-2.77997,0.15002-2.77997-2.19995-1.01996-3.94995
			c1.75-1.76001,5.56-4.10004,11.26996-5.86005c5.70001-1.75,8.63,0.88,13.61005,5.27002
			C329.06,169.03,328.33002,170.49997,325.70001,170.79001z"/>
	</g>
	<g id="_x32_">
		<path class="st3" d="M180.22998,302.05997c-5.26996,7.17004-12.72998,10.39001-15.94995,10.83002
			c-2.60004,0.35999-4.81006-0.06-8.27002-2.32001c0.03998-0.01996,0.08002-0.04999,0.12-0.07001
			c9.76001-5.85999,12.09998-13.46997,17.37-23.60999c5.27002-10.14996-3.32001-42.33997-6.63-60.09998
			c-3.32001-17.76001-15.81-34.73004-18.34998-62.83002c-2.53003-28.09998,13.07996-53.07001,16-59.32001
			c2.92999-6.23999-1.36005-4.28998-2.53003-3.89996c-1.16998,0.38995-23.60999,22.43994-33.76001,54.43994
			c-10.13995,32-17.16998,35.90002-19.32001,35.51001c-2.13995-0.38995-1.35999-5.45996-1.94995-16.57996
			c-0.36005-6.89001,3.23999-21.5,6.03998-31.63c16.26001-13.96002,37.78003-32.75,47.31-42.39001
			c11.22003-11.34998,14.19-13.53998,19.51001-13.53998c2.01001,0,3.37,0.22998,3.85999,0.32996
			c0.40002,0.08002,0.82001,0.13,1.22998,0.17004c0.04004,0.20996,0.08002,0.40997,0.10004,0.62
			c0.97998,8.57996-5.07001,17.35999-15.79999,35.50995c-2.51001,4.24005-3.81,9.43005-4.33002,14.88
			c-5.22003,12.72003-1.64001,21.91003,1.01001,33.75c2.77997,12.44,16.67999,35.42004,21.95001,70.83002
			C193.10999,278.05997,185.5,294.88998,180.22998,302.05997z"/>
		<path class="st3" d="M277.29999,79.80997c-8.72998,0.69-22.44,3.41003-36.03998,12.69
			c-22.54004,15.36005-29.85999,10.83002-30.44,9.95001c-0.59003-0.88,10.08997-4.97998,14.19-9.65997
			c3.70996-4.23004,6.82001-9.47003,10.52002-12.35004c0.95996,0.11005,1.68994,0.20001,2.12994,0.23004
			c0.26001,0.01996,0.53003,0.02997,0.79004,0.02997c0.71997,0,1.42999-0.08002,2.14001-0.22998
			C247.88,78.92001,255,78.12997,261.72998,78.12997C269.21002,78.12997,274.42999,79.09,277.29999,79.80997z"/>
		<path class="st3" d="M283.15997,141.80997c-0.28998,0.30005-2.53998,1.17004-6.14996-0.67999
			c-2.91998-1.5-6.09003-4.45996-8.64001-7.38995c0.14001-0.17004,0.27002-0.33002,0.40002-0.49005
			c4.16998-5.04999,5.48999-9.28998,5.56-13.01996c0.07001-3.73004-1.83002-8.42004-6-11.27002
			c-4.17004-2.84998-4.98004-2.12-4.10004-0.88c0.88,1.25,3.95001,2.56,4.61005,6.37c0.04999,0.28003,0.08997,0.54004,0.12,0.79999
			c-2.30005,0.33002-5.38-0.39996-9.41003-2.40997c-3.76996-1.89001-4-3.60999-3.89996-5.08002
			c0.08997-1.45996,1.75-4.67999,11.79999-5.45996c10.04999-0.78003,11.41998,5.94995,11.81,18.44
			C279.65002,133.23001,283.45001,141.51999,283.15997,141.80997z"/>
		<path class="st3" d="M283.16998,168.24997c-1.34998,3.12-13.46997,14.25-20.10999,20.88
			c-6.63,6.63-15.02002,28.29004-17.95001,38.04999c-2.19,7.31006-9.29999,21.27002-15.44,29.64001
			c-0.41998-1.51001-0.88-3.45001-1.57996-5.79999c-1.91003-6.40997-1.03003-3.98999-9.52002-20.96002
			c-8.47998-16.97998-1.46002-16.97998,8.64001-26.04999c8.45996-7.60999,7.46997-19.33002,6.91998-22.91998
			c-0.01001-0.08002-0.03998-0.16003-0.07001-0.22003c0.96002-3.28998,2.21002-7.90997,2.65997-11.25
			c0.78003-5.75995-2.72998-8.09998-7.81-13.26996c-5.06995-5.17004-4.77997-10.44-4.38995-15.12
			c0.38995-4.67999,1.57001-1.47003,6.06,3.70996c4.48999,5.17004,14.82001,8,19.01996,5.26001
			c4.19-2.72998,2.53003-0.87,2.24005,4.35004c-0.19,3.46997,0.76996,4.83997,1.94995,5.66998
			c0.20001,2.33997,0.44,3.62,1.37,0.78998c0.16003,0.08002,0.32001,0.16998,0.47003,0.26001
			c1.73999,1.01001,9.58002,2.09998,20.70001,0.34998C287.45001,159.86002,284.52002,165.12997,283.16998,168.24997z"/>
		<path class="st3" d="M232.79999,123.69998c-3.08997,1.45001-6.87,4.23999-11.08997,9.03003
			c-0.97003,1.12-1.97003,2.32996-2.99005,3.66998c-1.41998,1.85999-2.37,3.19-2.92999,4.10999
			c-0.09998-0.09998-0.15997-0.23999-0.14996-0.39996c0.02997-1.15002,0.20001-2.95001,0.81-4.85004
			c1.02997-3.17999,4.60999-8.08002,4.60999-8.08002c-3.07001-1.23999-1.96997-2.41998,0-3.81
			c1.38-0.96997,5.64001-2.85999,9.08002-3.89996h0.01001c0.25995,0.13,0.72998,0.21997,1.44995,0.25h0.10004
			C238.51001,120.05002,238.70001,120.95999,232.79999,123.69998z"/>
		<path class="st3" d="M325.70001,170.79001c-2.64001,0.28998-1.17999,0-5.41998,1.45996
			c-4.24005,1.47003-8.16003,5.83002-9.80005,11.42004c-0.76996,2.62-0.88,6.72998-3.81,10.23999s-3.51001,1.16998-4.09998,0
			c-0.58002-1.16998,0.14996-4.23999-2.19-7.46002c-2.34003-3.21997-2.64001-5.27002-2.38-7.32001
			c0.25-2.04999,2.22998-6.72998,8.52002-8.63c6.29999-1.90997,9.21997-1.46997,9.95996-2.77997
			c0.73004-1.32001-2.19995-2.04999-5.85999-1.47003c-3.65997,0.59003-7.60999,2.78003-10.39001,2.92999
			c-2.77997,0.15002-2.77997-2.19995-1.01996-3.94995c1.75-1.76001,5.56-4.10004,11.26996-5.86005
			c5.70001-1.75,8.63,0.88,13.61005,5.27002C329.06,169.03,328.33002,170.49997,325.70001,170.79001z"/>
		<path class="st3" d="M347.20001,221.17001c-0.06,3.00995-0.41003,19.33997-1.60004,24.25
			C344.28003,250.84,335.5,255.51999,331.98999,257.09c-3.51001,1.56-6.28998-0.84003-21.65997,13.65002
			c-12.86005,12.12-26.73999,20.75995-38.04004,23.76996c7.76001-6.53998,14.92999-15.48999,20.33002-21.27997
			c8.04999-8.64001,14.64001-14.34003,20.22003-17.27002c5.57996-2.92999,11.25-8.92999,17.25-16.39001
			c4.88995-6.07996,4.72998-14.96997,4.65997-22.72998c4.81,1.97998,10.37,3.35999,11.98999,3.73999
			C347.02002,220.64999,347.20001,220.88998,347.20001,221.17001z"/>
		<path class="st3" d="M369.22998,286.24997c-1-0.31-1.16998-0.96997-1.52997-3.79999c-0.44-3.37,0.28998-7.46997-0.59003-16.09998
			s-7.89996-15.51001-9.65997-19.02002c-1.75-3.52002-1.32001-6.88-2.78003-13.02997
			c-1.45996-6.14001-2.48999-11.71002,3.07001-14.78003s10.10004-7.46002,11.56-9.95001c0.12-0.20001,0.22003-0.39996,0.31-0.58997
			c0.60999,0.65997,1.12,1.37,1.29999,2.04999c0.59003,2.20001-0.42999,4.69-1.45996,7.90997
			c-1.02002,3.22003-4.10004,4.23999-6.15002,6.87c-2.03998,2.64001-1.16998,4.39001-0.87,11.86005
			c0.28998,7.45996,3.95001,13.01996,6.58002,15.94995c2.64001,2.93005,4.53998,11.41003,4.97998,17.85004
			C374.28998,275.91,372.02002,281.18997,369.22998,286.24997z"/>
		<path class="st3" d="M410.96002,221.91c-1.17004,15.60999-1.85004,17.56-1.26001,24.88c0.58002,7.32001,0,8.96997-0.59003,9.26996
			c-0.58997,0.29004-2.72998-2.25-3.21997-3.60999c-0.48999-1.37-3.60999-6.25-5.85004,2.23999
			c-2.25,8.48999-3.32001,19.81-2.44,30.25c0.88,10.42999,1.17004,27.31,0.78003,33.85004
			c-0.39001,6.53998-1.85999,11.89996-4.48999,14.53998c-2.63,2.63-6.44,4.09003-8.67999,3.02002
			c-1.54004-0.73004-8.08002-6.89001-12.36005-12.44c-1.67999-3.66998-2.56-6.75-3.73999-12.10004
			c-0.01001-0.01996-0.01001-0.02997-0.01996-0.04999c-0.01001-3.34998,0.33997-6.10999,0.57996-7.59998
			c0.08002-0.5,0.67999-0.69,1.03003-0.32001c4.91998,5.19,15.14001,12.88,16.75,10.21997
			c1.01996-1.67999-0.73004-19.46997-0.73004-19.46997c-2.04999-26.19,4.39001-41.12,12.88-64.53003
			c8.49005-23.41998,3.36005-35.85999-3.50995-52.38995C390.27002,163.67996,378.06,153.55997,374.44,150.78
			c-0.40997-0.31-1-0.01001-0.97003,0.5c0.15002,3.15997,0.46002,11.14001-0.35999,11.60999
			c-1.01996,0.58002-2.77997-0.29999-5.26996-1.16998c-2.49005-0.88-6.73004-3.22003-7.02002-4.39001
			c-0.29999-1.16998,1.46002-2.77997,4.23999-4.97998c2.28003-1.79999,2.29999-5.85999,2.22998-7.26001
			c-0.00995-0.28998,0.17999-0.54999,0.46002-0.62l2.08002-0.48999c0.46997-0.12,0.63-0.69,0.28998-1.02002
			c-0.85999-0.83002-2.38-2.33002-4.46997-4.51001c-3.37-3.51001-8.49005-2.33997-11.42004-2.33997
			s-5.40997,0.28998-5.40997-1.03003c0-0.08002,0.01001-0.16998,0.02997-0.26001c0.13-0.64996,0.70001-1.53998,1.48004-2.06
			c2.45996-1.63,2.22998-2.37-0.97003-1.17999c-0.07001,0.03003-0.14001,0.04999-0.20996,0.08002
			c-1.60004,0.60999-3.32001,1.96997-4.58002,3.70996c-1.89001,2.63-1.91998,7.69-2.89001,8.85004
			c-0.02997,0.03998-0.07001,0.08002-0.09998,0.10999c-0.07001,0.06-0.15002,0.09998-0.23004,0.12
			c-1.31,0.29004-1.89996,0.29004-5.40997-4.97998c-1.38-2.06-2.01001-5.17999-2.28003-8.21002
			c2.68005-5.26996,4.96002-7.53998,7.06-8.08002c2.24005-0.58997,4.54004,0.34003,7.88,2.85004
			c3.34003,2.52002,3.13,3.48999,3.28003,4.65997c0.15997,1.17004,0.89001,1.66003,3.83997,0.67999
			c2.95001-0.96997,9.19,0.49005,10.46002,1.57001c1.27002,1.07001,3.60999,3.07001,5.08002,6.02002
			c1.45996,2.95001-0.29999,4.32001,0,4.90002c0.28998,0.58997,6.91998,1.46997,14.33997,7.81
			c7.41003,6.33997,17.17004,20.67999,21.27002,33.16998C410.96002,197.32999,412.13,206.30002,410.96002,221.91z"/>
	</g>
	<g>
		<path class="st4" d="M274.33002,120.23001c-0.07001,3.72998-1.39001,7.96997-5.56,13.01996
			c-4.17004,5.05005-8.64001,12.32001-10.61005,17.27002c-0.12994,0.31-0.38995,1.01001-0.59998,1.59998
			c-0.22998,0.62006-0.41998,1.25-0.57001,1.89001c-3.27997,13.96002-2.94,7.96002-3.48999,2.79999
			c-0.25-2.29999-0.28003-4.71997-0.22998-6.70996c0.03998-1.79999-1.71002-3.04999-3.42999-2.51001
			c-0.18005,0.06-0.36005,0.10999-0.54004,0.15002c-5.21997,1.20996-9.08002,0.42999-14.47998-2.34003
			c-2.71002-1.39001-6.04999-5.83002-8.03003-8.72003c-0.91998-1.34998-2.82001-1.56-4.01996-0.44995
			c-4.29004,3.96997-12.37,11.04999-4.05005,0.16998c1.02002-1.34003,2.02002-2.54999,2.99005-3.66998
			c4.21997-4.79004,8-7.58002,11.08997-9.03003c5.90002-2.73999,5.71002-3.64996-1.09998-3.97998h-0.10004
			c-3.44-0.15002-1.25-1.54004,2.56-2.27002c3.80005-0.72998,7.90002-0.21997,12.44,1.39001
			c3.12,1.10999,8.98004,7.44,12.33002,11.28998c1.34003,1.54004,3.79999,1.29999,4.81-0.47998
			c0.66998-1.19,1.47998-2.69,2.5-4.59003c2.60004-4.82996,3.26001-6.81,2.60004-10.60999c-0.66003-3.81-3.73004-5.12-4.61005-6.37
			c-0.88-1.23999-0.07001-1.96997,4.10004,0.88C272.5,111.80997,274.40002,116.49997,274.33002,120.23001z"/>
	</g>
	<g>
		<path class="st4" d="M440.78998,202.47c-7.79999-12.67999-17.44-28.27002-26.40997-40.16998
			c-8.97998-11.90002-28.39001-37.80005-31.71002-40.54004c-2.48999-2.03998-6.39996-2.33997-8.20001-2.34998
			c-0.63995-0.01001-1.23999-0.29004-1.65997-0.76001c-4.03998-4.51001-24.60999-27.27002-32.83002-31.69
			c-0.38995-0.21997-0.70996-0.54999-0.91998-0.94c-1.40002-2.73999-8.39001-13.44-31.82001-13.44
			c-0.53998,0-1.08997,0-1.64001,0.01001l-21.23999,0.95001H284.25c-0.34003,0-0.67999-0.07001-0.97998-0.21002
			c-1.67004-0.78998-9.25-3.20001-21.54004-3.20001c-6.38,0-14.03998,0.65002-22.81,2.52002
			c-0.14996,0.02997-0.31,0.04999-0.46997,0.04999c-0.04999,0-0.10999,0-0.16003-0.01001
			c-1.63995-0.13-8.89996-0.59998-17.33997-0.59998c-10.40002,0-22.57001,0.71997-28.19,3.71002
			c-0.32001,0.16998-0.66003,0.25-1.01001,0.25c-0.15002,0-0.29999-0.02002-0.45001-0.05005
			c-1.04999-0.20996-2.94-0.48999-5.45001-0.48999c-7.29999,0-19.89996,2.34003-32.83997,15.42999
			c-15.82001,15.98999-51.15002,43.51001-67.53003,58.92004c-9.51996,8.95996-22.76001,19.85999-17.73999,49.56
			c2.32001,10.25,4.73999,28.85999,17.81,43.29999c3.92999,4.33997,7.71002,7.19,11.48999,11.26001
			c8.79004,9.47998,15.59003,15.19995,20.75,22.13c8.46002,11.34998,11.81,16.96997,17.86005,32.38995
			c5.09998,13.01001,16.88,20.04004,25.94,20.04004c1.23999,0,2.41998-0.13,3.52997-0.39001
			c0.16998-0.03998,0.34003-0.06,0.51001-0.06c0.81,0,1.57001,0.44,1.96997,1.17999
			c0.78003,1.41998,1.61005,4.16998,1.61005,9.47003V358.84c0,0.60999-0.24005,1.17999-0.67004,1.60999
			c-1.84998,1.82001-6.95996,7.29004-7.91998,13.02002c-1.16998,7.02997-3.12,21.08002,0,29.27002
			c3.12,8.19995,14.44,19.50995,24.20001,23.81c9.75,4.28998,29.27002,14.81995,56.58002,16.77997
			c6.58997,0.47003,13.58997,0.71002,20.65997,0.71002c22.22998,0,45.14001-2.41003,58.16998-7.73999
			c17.17004-7.02002,32-17.17004,37.07001-25.36005c5.08002-8.19995,4.87-24.41998,4.20001-31.41998
			c-0.5-5.25-1.57001-15.40002-8.78003-19.58002c-0.62994-0.37-1.01996-1.03998-1.06995-1.76996
			c-0.27002-3.88,2.06-17.09003,3.75-27.28003c0.82996-4.98999,1.79999-10.69,4.92999-17.85999c0.44-0.83002,1.5-1.88,2.28998-1.88
			c0.97998,0,2.62,0.48999,3.47003,5.09998c1.09998,4.98004,2.29999,7.58002,4.75,13.5
			c3.40997,8.21002,7.21997,12.44,11.22998,15.70001c2.53998,2.04999,7.23999,3.94,11.27002,3.94
			c4.52997,0,9.25-1.16998,11.66998-4.10999c4.58997-5.56,11.27002-20.26001,11.85999-28.59003
			c0.58002-8.33997-1.41998-21.26996,0.53003-24.96997c1.94995-3.71002,6.63995-10.35004,11.89996-19.91003
			c4.85999-8.79999,7.06-20.57996,7.23004-25.73999c0.01996-0.67999,0.33997-1.32001,0.89996-1.70996
			c1.63-1.18005,5.77002-6.79004,8.25-16.25C447.34003,221.80002,448.59998,215.16,440.78998,202.47z M352.34003,372.86996
			c0.75,2.74005,1.02997,5.68005,1.19995,7.42004c0.88,9.15997-0.01996,21.56-3.03998,26.42999
			c-3.52002,5.69-16.09003,15.14001-33.29999,22.17999c-11.60004,3.71002-21.75,6.42999-44.87,6.42999
			c-6.88,0-26.36005-0.71997-32.78003-1.46997c-0.98999-0.11005-1.96997-0.24005-2.95001-0.37
			c-1.01996-0.14001-2.02997-0.29004-3.03998-0.44c-0.40002-0.06-0.79999-0.12006-1.19-0.19
			c-0.06-0.01001-0.12-0.02002-0.19-0.03003c-0.90997-0.15002-1.82001-0.29999-2.72998-0.46997
			c-1.10004-0.19-2.17999-0.40002-3.26001-0.62c-4.35999-0.86005-8.54999-1.87006-12.47998-2.97003
			c-0.79004-0.21002-1.57001-0.42999-2.33002-0.65997c-5.16003-1.5-9.82001-3.11005-13.81-4.70001
			c-0.39001-0.15002-0.77002-0.29999-1.14001-0.46002c-0.46002-0.17999-0.90997-0.37-1.34998-0.56
			c-0.28003-0.10999-0.54999-0.22998-0.81-0.34998c-0.35004-0.15002-0.69-0.29999-1.02002-0.45001
			c-0.33002-0.14001-0.65997-0.28998-0.97998-0.44c-1.52002-0.70001-7.80005-4.09003-8.92004-4.95001
			c-7.12-5.45996-11.07996-10.12-14.44-16.47998c-0.63995-1.70001-1.76996-5.13-1.67999-11.85999
			c0-0.39001,0.01001-0.79004,0.02002-1.20001c0-0.07001,0.01001-0.14001,0.01001-0.21002
			c0.01001-0.23999,0.02002-0.48999,0.02997-0.75c0.01001-0.25,0.02002-0.51001,0.04004-0.77002
			c0.02997-0.51996,0.06-1.04999,0.10999-1.60999c0-0.04999,0.01001-0.10999,0.01001-0.16998
			c0.03998-0.5,0.08997-1.01001,0.14001-1.53998c0.02997-0.29004,0.06-0.59003,0.08997-0.89001
			c0.06-0.51001,0.12-1.04004,0.19-1.59003c0.01001-0.08997,0.03003-0.19,0.03998-0.27997
			c0.08002-0.64001,0.17004-1.29004,0.27002-1.97003c0.02002-0.13995,0.03998-0.26996,0.06-0.40997
			c0.09003-0.54999,0.16998-1.10999,0.27002-1.67999c0.16998-1.03003,0.76001-2.33002,1.64001-3.73004
			c0.44995-0.71997,1.52997-0.56995,1.78998,0.23004c1.06,3.31,3.09998,7.82001,6.83002,10.95996
			c6.57996,5.56,16.67999,9.37,28.09998,13.76001c11.41003,4.39001,19.16998,6,30.28998,8.04999
			c11.12006,2.05005,31.02002,2.49005,37.46002,2.78003s25.03003-1.60999,36.72998-5.12
			c11.71002-3.52002,21.52002-10.39001,27.66003-15.66003c3.96997-3.39996,8.60999-9.58997,11.39996-13.54999
			C350.95001,371.75998,352.09998,371.98001,352.34003,372.86996z M437.95001,226.06998c-1.88,7.13-4.69,11.14001-5.48999,12.02002
			c-2.37,1.83997-3.83002,4.70001-3.92999,7.71997c-0.13,4.01001-2.09003,14.63-6.23004,22.14001
			c-2.95996,5.37-5.72998,9.79004-7.95996,13.34003c-0.42004,0.66998-0.81,1.29999-1.19,1.89996
			c-0.57001-0.31-1.56-1.13995-2.49005-3.44c-0.91998-2.29999-1.78998-6.06-2.12-12.20996
			c-0.00995-0.23999-0.20996-0.44-0.44995-0.47003c-0.26001-0.01001-0.47003,0.14001-0.53003,0.38
			c-0.06,0.22998-1.42999,5.94,1.35999,22.88c0.06,0.37,0.12,0.75,0.17999,1.14001v0.01001
			c-0.76996,3.51996-0.62,8.02997-0.34998,14.17999c0.16998,3.71997,0.34003,7.58002,0.14001,10.46997
			c-0.44,6.27002-6.28003,19.48004-10.04004,24.04004c-0.37,0.38-2.26996,1.21997-5.50995,1.21997
			c-2.73004,0-7.14001-0.27002-8.96002-1.33002c-3.76001-2.19995-7.09998-7.48999-10.04999-13.13995
			c-2.73004-5.25-3.73004-8.38-5.22003-15.11005c-0.01001-0.01996-0.01001-0.02997-0.01996-0.04999
			c-0.01001-3.34998,0.33997-6.10999,0.57996-7.59998c0.08002-0.5,0.67999-0.69,1.03003-0.32001
			c4.91998,5.19,15.14001,12.88,16.75,10.21997c1.01996-1.67999-0.73004-19.46997-0.73004-19.46997
			c-2.04999-26.19,4.39001-41.12,12.88-64.53003c8.49005-23.41998,3.36005-35.85999-3.50995-52.38995
			C390.27002,163.67996,378.06,153.55997,374.44,150.78c-0.40997-0.31-1-0.01001-0.97003,0.5
			c0.15002,3.15997,0.46002,11.14001-0.35999,11.60999c-1.01996,0.58002-2.77997-0.29999-5.26996-1.16998
			c-2.49005-0.88-6.73004-3.22003-7.02002-4.39001c-0.29999-1.16998,1.46002-2.77997,4.23999-4.97998
			c2.28003-1.79999,2.29999-5.85999,2.22998-7.26001c-0.00995-0.28998,0.17999-0.54999,0.46002-0.62l2.08002-0.48999
			c0.46997-0.12,0.63-0.69,0.28998-1.02002c-0.85999-0.83002-2.38-2.33002-4.46997-4.51001
			c-3.37-3.51001-8.49005-2.33997-11.42004-2.33997s-5.40997,0.28998-5.40997-1.03003c0-0.08002,0.01001-0.16998,0.02997-0.26001
			c0.13-0.64996,0.70001-1.53998,1.48004-2.06c2.45996-1.63,2.22998-2.37-0.97003-1.17999
			c-0.07001,0.03003-0.14001,0.04999-0.20996,0.08002c-1.60004,0.60999-3.32001,1.96997-4.58002,3.70996
			c-1.89001,2.63-1.91998,7.69-2.89001,8.85004c-0.02997,0.03998-0.07001,0.08002-0.09998,0.10999
			c-0.07001,0.06-0.15002,0.09998-0.23004,0.12c-1.31,0.29004-1.89996,0.29004-5.40997-4.97998
			c-1.97998-2.97003-2.42999-8.12-2.44-12.06c0-0.71002-1.02002-0.83002-1.19-0.13c-0.78998,3.33997-1.58002,7.64001-1.34998,10.88
			c0.44,6.14001,8.33997,16.39001,28.09998,25.45996c19.76001,9.07001,21.51001,19.75,23.27002,29.27002
			c1.76001,9.51001-1.76001,26.63-3.81,34.67999c-2.04004,8.04999,1.17999,16.83002,2.63995,23.39001
			c1.46002,6.56-3.37,26.21997-4.82996,29.59003c-1.46002,3.35999-4.83002,6.13995-6.44,5.84998s-1.76001-0.59003-2.19-3.95001
			c-0.44-3.37,0.28998-7.46997-0.59003-16.09998s-7.89996-15.51001-9.65997-19.02002c-1.75-3.52002-1.32001-6.88-2.78003-13.02997
			c-1.45996-6.14001-2.48999-11.71002,3.07001-14.78003s10.10004-7.46002,11.56-9.95001
			c1.47003-2.48999,0.44-3.95001-2.03998-5.70996c-2.48999-1.75-4.10004-2.78003-6-6.44
			c-1.91003-3.66003-0.15002-8.05005,1.75-8.48004c1.89996-0.44,2.92999-0.29999,5.27002,2.19
			c2.33997,2.48999,5.12,7.46002,6.43994,6.44c1.32001-1.01996,0.88-3.07001,0-6.28998
			c-0.87994-3.22003-3.94995-8.04999-8.04999-10.83002c-4.09998-2.77997-12.57996-2.20001-25.01996-2.20001
			s-15.95001,3.51001-18.74005,6c-2.77997,2.49005-6.42999,12.15002-5.12,13.76001c1.32001,1.60999,2.20001,0.73004,4.54004-0.72998
			c2.33997-1.47003,4.38995-5.27002,7.89996-7.76001s7.47003-0.28998,9.81,1.76001c2.34003,2.04999,2.34003,5.27002,0,8.77997
			c-2.33997,3.51001-6.14996,3.22003-11.70996,3.66003s-4.23999,4.08997-0.59003,8.77997c3.29004,4.20001,16.37,7.46002,19,8.08002
			c0.28003,0.07001,0.46002,0.31,0.46002,0.59003c-0.06,3.00995-0.41003,19.33997-1.60004,24.25
			C344.28003,250.84,335.5,255.51999,331.98999,257.09c-3.51001,1.56-6.28998-0.84003-21.65997,13.65002
			c-15.37,14.48999-32.20001,24-44.34003,24.87994c-12.14996,0.88-15.81-1.02997-24.72998-6.72998
			c-8.92999-5.71002-4.83002-10.53998-3.96002-14.92999c0.88-4.39001,6-9.21997,14.04999-32.63
			c7.80005-22.69,15.60004-28.20001,16.08002-28.52997c0.02002-0.01001,0.03998-0.02002,0.04999-0.04004
			c8.17999-6.90997,12.90002-12.07001,15.42999-15.20001c0.44-0.53998-0.22998-1.26996-0.81-0.88
			c-3.63,2.47003-8.57996,5.15002-11.13995,6.74005c-3.51001,2.19995-12.58002,6.73999-15.66003,10.09998
			c-3.07001,3.37-10.67999,20.04999-13.01996,27.51001c-2.34003,7.46997-7.46002,19.76001-9.80005,19.76001
			c-2.34998,0-2.48999-3.37-4.38995-9.77002c-1.91003-6.40997-1.03003-3.98999-9.52002-20.96002
			c-8.47998-16.97998-1.46002-16.97998,8.64001-26.04999c8.45996-7.60999,7.46997-19.33002,6.91998-22.91998
			c-0.08002-0.52002-0.66998-0.78003-1.10999-0.5l-9.32001,5.85999c-10.25,6.44-12.44,6.29004-27.08002-7.46997
			c-14.63-13.75-16.67999-27.36005-16.67999-39.80005c0-10.75,15.20001-34.40997,19.32001-40.62994
			c0.33002-0.49005-0.19-1.11005-0.72998-0.88c-11.65002,4.96997-26.66003,25.34998-32.79004,38.44
			c-6.44,13.75-2.63,23.25995,0.15002,35.69995c2.77997,12.44,16.67999,35.42004,21.95001,70.83002
			c5.26996,35.41998-2.34003,52.25-7.61005,59.41998c-5.26996,7.17004-12.72998,10.39001-15.94995,10.83002
			c-3.22003,0.44-5.85004-0.29999-10.98004-4.25c-5.07001-3.90997-10.14001-14.41998-10.23999-14.63c0,0,0,0,0-0.01001
			c-7.75-13.01996-6.26001-37.59998-6.07001-42.97998c0.47003-13.69,2.16998-19.53998,2.85004-23.52002
			c0.12-0.70996-0.84003-1-1.15002-0.35999c-5.72998,11.85999-6.87,35.76001-7.06,48.38
			c-0.02002,1.89001-2.46002,2.64001-3.54999,1.09998c-1.39001-1.97998-2.85004-4.07996-3.65002-5.38995
			c-4.81-7.86005-11.63-14.33002-20.77997-23.81C99.5,243.12997,94.25,237.88998,89.79999,232.31998
			C81.27002,221.63998,78.32001,212.84,76.75,203.92996c-0.38-2.17999-0.75-4.23999-1.20001-6.26996
			C71.06,174.24997,83.21002,167.67001,92.62,159.80997c2.65002-2.20996,51.81-43.65997,67.69-59.71997
			c11.22003-11.34998,14.19-13.53998,19.51001-13.53998c2.01001,0,3.37,0.22998,3.85999,0.32996
			c0.66998,0.13,1.35999,0.20001,2.03998,0.20001c1.66003,0,3.31006-0.40997,4.77002-1.17999
			c1.22003-0.65997,5.31-7.97003,29.04004-6.98999c7.65997,0.31,16.07996,1.59998,18.12994,1.76001
			c0.26001,0.01996,0.53003,0.02997,0.79004,0.02997c0.71997,0,1.42999-0.08002,2.14001-0.22998
			C247.88,78.92001,255,78.12997,261.72998,78.12997c9.38,0,15.20001,1.5,17.29004,2.15002
			c2.01001,0.97998,4.07996,2.27002,5.98999,3.95001c6.77002,5.95996,7.16998,5.77997,7.39001,5.73999
			c0.21997-0.03003-0.62-2.29999-2.30005-3.79999c-1.64996-1.47003-3.50995-4.57001,0.57001-4.82001
			c0.09003,0,0.17999-0.01001,0.27002-0.01001c0.10999,0,0.21002-0.01001,0.31-0.01001
			c6.53003-0.20001,15.64001-0.47998,15.92999-0.46997c15.83002,0.41998,20.95001,5.92999,24.08002,9
			c0.95001,1.84998,3.09998,3.15997,4.92999,4.13995c4.34998,2.35004,16.96002,14.67004,30.65997,29.98004
			c1.92004,2.14996,4.44,4.82001,7.31,4.84998c1.54004,0.02002,2.77002,0.32001,3.19,0.53998
			c3.46002,3.40002,21.66003,25.83002,28.48004,34.88l2.15997,2.87c8.97998,11.91003,18.81,27.88,25.98999,39.54004
			C440.33002,216.99002,439.22998,221.19998,437.95001,226.06998z"/>
	</g>
	<g id="Usta">
		<path class="st2" d="M363.27002,264.19998c-1.39001,0.69-3.59003,1.71002-5.01001,2.22003
			c-3.08002,1.09998-8.20001,0.29999-11.92999-0.80005c-3.36005-0.98999-7.5-4.69995-9.61005-6.76996
			c0.24005-0.15002,0.49005-0.29999,0.73004-0.45001c0,0,4.20001-2.59003,7.32001-4.04999
			c3.03998-1.42004,5.38-2.08002,7.35999-1.79999c2.15002,0.28998,3.37,1.69995,4.73999,3.01996
			c1.35999,1.32001,4.63,5.14001,6.26001,8.33002C363.17999,263.99997,363.22998,264.10001,363.27002,264.19998z"/>
		<path class="st5" d="M362.62,279.12997c-2.28998,2.48999-6.58002,3.79004-12.04999,3.81
			c-5.22003,0.01001-10.34003-2-13.12-3.26996c-2.78003-1.27002-6.66003-3.81-8.63-6.25
			c-1.23999-1.52002-1.75-3.08002-1.79999-4.47003c-0.01001-0.08997-0.01001-0.16998-0.01001-0.25c0-0.12,0-0.25,0.02002-0.37
			c0.02997-0.72998,0.18994-1.40002,0.41998-1.97998c0.25-0.62,0.94-1.40002,1.91998-2.28003
			c0.01001-0.01001,0.03003-0.02997,0.03998-0.03998c1.74005-1.53998,4.41003-3.38,7.31-5.17999
			c2.11005,2.07001,6.25,5.77997,9.61005,6.76996c3.72998,1.10004,8.84998,1.90002,11.92999,0.80005
			c1.41998-0.51001,3.62-1.53003,5.01001-2.22003c0.34998,0.73999,0.63,1.58002,0.83997,2.47998
			C365.16998,271.12997,364.62,276.95999,362.62,279.12997z"/>
	</g>
</g>
<g id="OÄi">
	<path class="st6" d="M363.78003,148.36002c-0.41003,1.06995-0.88,1.81-1.74005,2.79999
		c-0.71997,0.83997-1.83997,1.89996-2.44995,2.32001C358.38,154.32999,356.87,154.59,355.62,154.55002
		c-2.41998-0.09003-6.96997-3.76001-8.04999-7.29004c-0.31-1.01001-0.51001-2.04999-0.56-3.01001
		c-0.08002-1.40997,0.14996-2.64996,0.79999-3.46997c0.27002-0.35999,0.63-0.63,1.08002-0.79999l0.59998-0.11005
		c0.59003-0.10999,1.06,0.38,1.01001,0.97003c-0.09998,1.48999-0.06,4,0.90002,5.59998c0.94,1.56,2.44,2.13,3.19995,2.42004
		c0.56,0.21997,0.77002,0.10999,0.32001-0.42004c-0.35999-0.42999-0.88995-0.83997-1.70996-2.03998
		c-0.61005-0.88-0.98004-2.03998-0.88-4.22003c0.03998-0.87,0.20001-1.5,0.37-1.92999c0.17999-0.47998,0.64001-0.75,1.14996-0.82996
		c1.19-0.20001,2.31-0.36005,4.95001-0.28003c1.5,0.04999,3.10999,0.35999,3.83002,0.64001
		c0.77997,0.31,1.46002,1.15997,1.56,1.78998C364.54999,143.74002,364.62,146.14999,363.78003,148.36002z"/>
	<path class="st7" d="M350.23999,144.18997c-0.21997,0.85004-1.12,1.78003-1.96997,1.65002
		c-0.67004-0.10999-1.07001-0.84998-1.26001-1.59003c-0.09003-0.32996-0.13-0.66998-0.13-0.94
		c-0.02002-0.81995,0.08997-1.97998,0.92999-2.52997c0.08002-0.07001,0.17999-0.12,0.28003-0.16003
		c0.46997-0.20996,1.35999-0.04999,1.71997,0.33002c0.26001,0.27002,0.41998,0.81,0.47998,1.58002
		C350.34998,143.48001,350.33002,143.85001,350.23999,144.18997z"/>
	<path class="st6" d="M227.77316,132.03191c-0.48227,0.44385-0.56245,1.30258-0.22391,1.8638
		c1.27521,2.11391,4.40031,6.99734,9.07269,9.23502c4.04878,1.93903,10.43903,2.2439,13.51219-2
		c3.07318-4.2439,3.95123-8.53659,2.09756-10.68292c-1.85365-2.14635-5.75609-5.17074-9.70732-4.2439
		c-2.1972,0.5154-3.44409,0.94028-4.11815,1.21595c-0.44388,0.18153-0.75246,0.58234-0.80072,1.05946
		c-0.10497,1.03767-0.20514,2.98735,0.30911,4.35873c0.6048,1.61276,2.69643,4.27251,4.0183,5.15244
		c0.21022,0.13994,0.50308,0.56078-0.30045,0.61479c-1.08841,0.07317-4.98004-0.40747-6.59589-5.18796
		c-0.39943-1.18172-0.44759-2.27934-0.43901-3.27054c0.00598-0.69139-0.67621-1.17294-1.32764-0.94115
		C231.70709,129.76173,229.42479,130.51186,227.77316,132.03191z"/>
	<path class="st7" d="M235.01219,132.00877c0.08377-0.68182-0.09401-2.16023-0.82927-2.68294
		c-0.85602-0.60858-2.6626,0.07037-3.31708,1.36584c-0.35013,0.69305-0.46744,1.75433,0.14633,2.58539
		c0.59982,0.81213,1.79242,1.26154,2.63416,0.82928C234.4454,133.69601,234.9124,132.82091,235.01219,132.00877z"/>
</g>
</svg>
